<svg xmlns="http://www.w3.org/2000/svg" viewBox="0 0 64 64">
  <rect width="64" height="64" rx="14" fill="#050507"/>
  <path d="M18 18h10l4 11 4-11h10v28h-8V29l-5 14h-2l-5-14v17h-8V18Z" fill="#fff"/>
  <path d="M44 44c5-4 7-8 7-13 0-6-4-10-10-10-4 0-7 2-9 5-2-3-5-5-9-5-1 0-2 0-3 .3l4.9 8.1c.6-.6 1.3-.9 2.1-.9 1.8 0 3.1 1.3 3.1 3.1 0 2.5-2.4 5-6.1 8.3l8 7.1 12-3Z" fill="#FD2F7D"/>
  <path d="M42 43c4-3.6 6-7.4 6-11.3 0-4.5-2.9-7.4-7.1-7.4-3.2 0-5.3 1.8-6.7 4.4h-1.5c-1.4-2.6-3.5-4.4-6.7-4.4-.8 0-1.5.1-2.2.3l3.1 5.2c.7-.5 1.5-.8 2.5-.8 2.9 0 5 2.2 5 5.3 0 1.5-.5 2.8-1.4 4.1l3.4 3 5.6 1.6Z" fill="#FF7A1A" opacity=".85"/>
</svg>
